<?xml version="1.0" encoding="UTF-8" standalone="no"?>
<svg
   xmlns:dc="http://purl.org/dc/elements/1.1/"
   xmlns:cc="http://creativecommons.org/ns#"
   xmlns:rdf="http://www.w3.org/1999/02/22-rdf-syntax-ns#"
   xmlns:svg="http://www.w3.org/2000/svg"
   xmlns="http://www.w3.org/2000/svg"
   xmlns:sodipodi="http://sodipodi.sourceforge.net/DTD/sodipodi-0.dtd"
   xmlns:inkscape="http://www.inkscape.org/namespaces/inkscape"
   xml:space="preserve"
   viewBox="0 0 50.322474 50.322473"
   height="529.87366"
   width="529.87366"
   y="0px"
   x="0px"
   id="Capa_1"
   version="1.1"
   inkscape:version="0.91 r"
   sodipodi:docname="icon-rotate.svg"><sodipodi:namedview
     pagecolor="#ffffff"
     bordercolor="#666666"
     borderopacity="1"
     objecttolerance="10"
     gridtolerance="10"
     guidetolerance="10"
     inkscape:pageopacity="0"
     inkscape:pageshadow="2"
     inkscape:window-width="1920"
     inkscape:window-height="1005"
     id="namedview49"
     showgrid="false"
     showguides="false"
     inkscape:zoom="0.89077838"
     inkscape:cx="316.85906"
     inkscape:cy="415.20099"
     inkscape:window-x="0"
     inkscape:window-y="48"
     inkscape:window-maximized="1"
     inkscape:current-layer="Capa_1" /><metadata
     id="metadata53"><rdf:RDF><cc:Work
         rdf:about=""><dc:format>image/svg+xml</dc:format><dc:type
           rdf:resource="http://purl.org/dc/dcmitype/StillImage" /><dc:title></dc:title></cc:Work></rdf:RDF></metadata><defs
     id="defs51" /><g
     transform="translate(-3.793147,1.0790084)"
     id="g19" /><g
     transform="translate(-3.793147,1.0790084)"
     id="g21" /><g
     transform="translate(-3.793147,1.0790084)"
     id="g23" /><g
     transform="translate(-3.793147,1.0790084)"
     id="g25" /><g
     transform="translate(-3.793147,1.0790084)"
     id="g27" /><g
     transform="translate(-3.793147,1.0790084)"
     id="g29" /><g
     transform="translate(-3.793147,1.0790084)"
     id="g31" /><g
     transform="translate(-3.793147,1.0790084)"
     id="g33" /><g
     transform="translate(-3.793147,1.0790084)"
     id="g35" /><g
     transform="translate(-3.793147,1.0790084)"
     id="g37" /><g
     transform="translate(-3.793147,1.0790084)"
     id="g39" /><g
     transform="translate(-3.793147,1.0790084)"
     id="g41" /><g
     transform="translate(-3.793147,1.0790084)"
     id="g43" /><g
     transform="translate(-3.793147,1.0790084)"
     id="g45" /><g
     transform="translate(-3.793147,1.0790084)"
     id="g47" /><g
     transform="translate(-3.7924164,1.6179838)"
     id="layer1"><g
       id="g5"
       transform="matrix(0.79016611,0,0,0.79016611,10.169546,4.7587992)"><polygon
         style="fill:#ffffff"
         points="35.479,11.176 34.938,11.288 34.866,12.057 35.514,12.057 36.376,11.974 36.821,11.445 36.348,11.261 36.089,10.963 35.7,10.333 35.514,9.442 34.783,9.591 34.578,9.905 34.578,10.259 34.93,10.5 35.432,10.815 "
         id="polygon7" /><polygon
         style="fill:#ffffff"
         points="33.374,11.297 33.374,11.76 33.893,11.76 34.809,11.111 34.848,10.629 34.419,10.444 33.819,10.583 "
         id="polygon9" /><path
         style="fill:#ffffff"
         d="m 22.459,13.158 -0.132,0.34 -0.639,0 0,0.33 0.152,0 c 0,0 0.009,0.07 0.022,0.162 l 0.392,-0.033 0.245,-0.152 0.064,-0.307 0.317,-0.027 0.125,-0.258 -0.291,-0.06 -0.255,0.005 z"
         id="path11"
         inkscape:connector-curvature="0" /><polygon
         style="fill:#ffffff"
         points="20.787,14.08 21.25,14.041 21.298,13.717 21.02,13.498 20.812,13.757 "
         id="polygon13" /><path
         style="fill:#ffffff"
         d="M 48.619,24.061 C 48.612,23.35 48.576,22.644 48.509,21.949 48.284,19.632 47.73,17.411 46.9,15.329 46.838,15.174 46.781,15.017 46.715,14.864 45.609,12.251 44.056,9.872 42.155,7.819 42.03,7.685 41.903,7.553 41.776,7.423 41.417,7.05 41.048,6.686 40.666,6.337 36.344,2.402 30.604,0 24.312,0 17.967,0 12.186,2.445 7.852,6.44 6.842,7.371 5.914,8.387 5.072,9.475 1.896,13.583 0,18.729 0,24.312 c 0,13.407 10.907,24.313 24.313,24.313 9.43,0 17.617,-5.4 21.647,-13.268 0.862,-1.682 1.533,-3.475 1.985,-5.354 0.115,-0.477 0.214,-0.956 0.3,-1.441 0.245,-1.381 0.379,-2.801 0.379,-4.25 10e-4,-0.084 -0.004,-0.167 -0.005,-0.251 z m -4.576,-9.717 0.141,-0.158 c 0.185,0.359 0.358,0.724 0.523,1.094 l -0.23,-0.009 -0.434,0.06 0,-0.987 z M 40.53,10.102 40.534,9.016 c 0.382,0.405 0.75,0.822 1.102,1.254 l -0.438,0.652 -1.531,-0.014 -0.096,-0.319 0.959,-0.487 z m -29.328,-2.699 0,-0.041 0.487,0 0.042,-0.167 0.797,0 0,0.348 -0.229,0.306 -1.098,0 10e-4,-0.446 0,0 z m 0.778,1.085 c 0,0 0.487,-0.083 0.529,-0.083 0.042,0 0,0.486 0,0.486 L 11.411,8.96 11.202,8.71 11.98,8.488 Z m 33.612,9.651 -1.779,0 -1.084,-0.807 -1.141,0.111 0,0.696 -0.361,0 -0.39,-0.278 -1.976,-0.501 0,-1.28 -2.504,0.195 -0.776,0.417 -0.994,0 -0.487,-0.049 -1.207,0.67 0,1.261 -2.467,1.78 0.205,0.76 0.5,0 -0.131,0.724 -0.352,0.129 -0.019,1.892 2.132,2.428 0.928,0 0.056,-0.148 1.668,0 0.481,-0.445 0.946,0 0.519,0.52 1.41,0.146 -0.187,1.875 1.565,2.763 -0.824,1.575 0.056,0.742 0.649,0.647 0,1.784 0.852,1.146 0,1.482 0.736,0 c -4.096,5.029 -10.33,8.25 -17.305,8.25 C 12.009,46.625 2,36.615 2,24.312 2,21.215 2.636,18.263 3.781,15.58 l 0,-0.696 0.798,-0.969 C 4.856,13.392 5.153,12.882 5.47,12.385 L 5.506,12.79 4.58,13.915 C 4.293,14.457 4.025,15.011 3.782,15.58 l 0,1.27 0.927,0.446 0,1.765 0.889,1.517 0.723,0.111 0.093,-0.52 -0.853,-1.316 -0.167,-1.279 0.5,0 0.211,1.316 1.233,1.799 -0.318,0.581 0.784,1.199 1.947,0.482 0,-0.315 0.779,0.111 -0.074,0.556 0.612,0.112 0.945,0.258 1.335,1.521 1.705,0.129 0.167,1.391 -1.167,0.816 -0.055,1.242 -0.167,0.76 1.688,2.113 0.129,0.724 c 0,0 0.612,0.166 0.687,0.166 0.074,0 1.372,0.983 1.372,0.983 l 0,3.819 0.463,0.13 -0.315,1.762 0.779,1.039 -0.144,1.746 1.029,1.809 1.321,1.154 1.328,0.024 0.13,-0.427 -0.976,-0.822 0.056,-0.408 0.175,-0.5 0.037,-0.51 -0.66,-0.02 -0.333,-0.418 0.548,-0.527 0.074,-0.398 -0.612,-0.175 0.036,-0.37 0.872,-0.132 1.326,-0.637 0.445,-0.816 1.391,-1.78 -0.316,-1.392 0.427,-0.741 1.279,0.039 0.861,-0.682 0.278,-2.686 0.955,-1.213 0.167,-0.779 -0.871,-0.279 -0.575,-0.943 -1.965,-0.02 -1.558,-0.594 -0.074,-1.111 -0.52,-0.909 -1.409,-0.021 -0.814,-1.278 -0.723,-0.353 -0.037,0.39 -1.316,0.078 -0.482,-0.671 -1.373,-0.279 -1.131,1.307 -1.78,-0.302 -0.129,-2.006 -1.299,-0.222 0.521,-0.984 -0.149,-0.565 -1.707,1.141 -1.074,-0.131 -0.383,-0.839 0.234,-0.865 0.592,-1.091 1.363,-0.69 2.632,-0.001 -0.007,0.803 0.946,0.44 -0.075,-1.372 0.682,-0.686 1.376,-0.904 0.094,-0.636 1.372,-1.428 1.459,-0.808 -0.129,-0.106 0.988,-0.93 0.362,0.096 0.166,0.208 0.375,-0.416 0.092,-0.041 -0.411,-0.058 -0.417,-0.139 0,-0.4 0.221,-0.181 0.487,0 0.223,0.098 0.193,0.39 0.236,-0.036 0,-0.034 0.068,0.023 0.684,-0.105 0.097,-0.334 0.39,0.098 0,0.362 -0.362,0.249 10e-4,0 0.053,0.397 1.239,0.382 c 0,0 10e-4,0.005 0.003,0.015 l 0.285,-0.024 0.019,-0.537 -0.982,-0.447 -0.056,-0.258 0.815,-0.278 0.036,-0.78 -0.852,-0.519 -0.056,-1.315 -1.168,0.574 -0.426,0 0.112,-1.001 -1.59,-0.375 -0.658,0.497 0,1.516 -1.183,0.375 -0.474,0.988 -0.514,0.083 0,-1.264 -1.112,-0.154 -0.556,-0.362 -0.224,-0.819 1.989,-1.164 0.973,-0.296 0.098,0.654 0.542,-0.028 0.042,-0.329 0.567,-0.081 0.01,-0.115 -0.244,-0.101 -0.056,-0.348 0.697,-0.059 0.421,-0.438 0.023,-0.032 0.005,0.002 0.128,-0.132 1.465,-0.185 0.648,0.55 -1.699,0.905 2.162,0.51 0.28,-0.723 0.945,0 0.334,-0.63 -0.668,-0.167 0,-0.797 L 22.69,5.284 21.244,5.451 20.428,5.878 20.484,6.916 19.631,6.786 19.5,6.212 20.317,5.47 18.834,5.396 l -0.426,0.129 -0.185,0.5 0.556,0.094 -0.111,0.556 -0.945,0.056 -0.148,0.37 -1.371,0.038 c 0,0 -0.038,-0.778 -0.093,-0.778 -0.055,0 1.075,-0.019 1.075,-0.019 L 18.003,5.544 17.557,5.321 16.964,5.897 15.98,5.841 15.387,5.025 l -1.261,0 -1.316,0.983 1.206,0 0.11,0.353 -0.313,0.291 1.335,0.037 0.204,0.482 L 13.849,7.115 13.776,6.744 12.831,6.54 12.33,6.262 11.205,6.271 C 14.888,3.588 19.417,2 24.312,2 c 5.642,0 10.797,2.109 14.73,5.574 l -0.265,0.474 -1.029,0.403 -0.434,0.471 0.1,0.549 0.531,0.074 0.32,0.8 0.916,-0.369 0.151,1.07 -0.276,0 -0.752,-0.111 -0.834,0.14 -0.807,1.14 -1.154,0.181 -0.167,0.988 0.487,0.115 -0.141,0.635 -1.146,-0.23 -1.051,0.23 -0.223,0.585 0.182,1.228 0.617,0.289 1.035,-0.006 0.699,-0.063 0.213,-0.556 1.092,-1.419 0.719,0.147 0.708,-0.64 0.132,0.5 1.742,1.175 -0.213,0.286 -0.785,-0.042 0.302,0.428 0.483,0.106 0.566,-0.236 -0.012,-0.682 0.251,-0.126 -0.202,-0.214 -1.162,-0.648 -0.306,-0.861 0.966,0 0.309,0.306 0.832,0.717 0.035,0.867 0.862,0.918 0.321,-1.258 0.597,-0.326 0.112,1.029 0.583,0.64 1.163,-0.02 c 0.225,0.579 0.427,1.168 0.604,1.769 l -0.121,0.112 z m -32.331,-7.093 0.584,-0.278 0.528,0.126 -0.182,0.709 -0.57,0.181 -0.36,-0.738 z m 3.099,1.669 0,0.459 -1.334,0 -0.5,-0.139 0.125,-0.32 0.641,-0.265 0.876,0 0,0.265 0.192,0 z m 0.614,0.64 0,0.445 -0.334,0.215 -0.416,0.077 c 0,0 0,-0.667 0,-0.737 l 0.75,0 z m -0.376,-0.181 0,-0.529 0.459,0.418 -0.459,0.111 z m 0.209,1.07 0,0.433 -0.319,0.32 -0.709,0 0.111,-0.486 0.335,-0.029 0.069,-0.167 0.513,-0.071 z m -1.766,-0.889 0.737,0 -0.945,1.321 -0.39,-0.209 0.084,-0.556 0.514,-0.556 z m 3.018,0.737 0,0.432 -0.709,0 -0.194,-0.28 0,-0.402 0.056,0 0.847,0.25 z m -0.655,-0.594 0.202,-0.212 0.341,0.212 -0.273,0.225 -0.27,-0.225 z m 28.55,5.767 0.07,-0.082 c 0.029,0.126 0.06,0.252 0.088,0.38 l -0.158,-0.298 z"
         id="path15"
         inkscape:connector-curvature="0" /><path
         style="fill:#ffffff"
         d="m 3.782,14.884 0,0.696 C 4.025,15.012 4.293,14.458 4.58,13.915 l -0.798,0.969 z"
         id="path17"
         inkscape:connector-curvature="0" /></g><g
       id="g4224"
       transform="matrix(0.08323959,0.04572313,-0.04572313,0.08323959,20.180235,-7.6361979)"
       style="fill:#ffffff;fill-opacity:1"><path
         sodipodi:nodetypes="sccccscccccsccs"
         inkscape:connector-curvature="0"
         style="fill:#ffffff;fill-opacity:1"
         d="m 71.838093,73.705201 c 86.799997,-88.8 229.599997,-90.5 318.399997,-3.7 l 24.1,19.500003 c 5.5,-0.1 9.8,-4.500003 9.8,-10.000003 l -0.6,-49.2 c -0.1,-5.5 -4.5,-9.9 -10,-9.8 -5.5,0.1 -9.8,4.5 -9.8,10 l 0.3,25.3 c -96.6,-94.4 -252,-92.5 -346.399997,4.1 -32.7,33.500012 -55.1000007,75.300029 -64.6000008,121.000029 -9.3000002,44.5 -6.1000002,90.5 9.2000001,133.2 1.5000002,4 5.3000005,6.6 9.3000007,6.6 1.1,0 2.2,-0.2 3.3,-0.6 5.1,-1.8 7.8,-7.5 6,-12.7 -29.3000009,-81.9 -9.8,-171.5 51,-233.700029 z"
         id="path4228" /><path
         sodipodi:nodetypes="cscccccccccccccsccc"
         inkscape:connector-curvature="0"
         style="fill:#ffffff;fill-opacity:1"
         d="m 76.008603,428.33069 c 46.100007,45 106.800007,69.7 171.100007,69.7 l 2.9,0 c 65.5,-0.8 126.7,-26.9 172.4,-73.8 32.8,-33.5 55.1,-75.4 64.6,-121.1 9.3,-44.5 6.1,-90.5 -9.2,-133.2 -1.8,-5.1 -7.5,-7.8 -12.7,-6 -5.1,1.8 -7.8,7.5 -6,12.7 29.4,81.9 9.9,171.5 -50.9,233.7 -42.1,43 -98.3,67.1 -158.5,67.8 -60.1,0.7 -116.9,-22.1 -159.900007,-64.1 l -24.1,-19.5 c -2.6,0 -5.1,1.1 -7,3 -1.8,1.9 -2.8,4.4 -2.8,7 l 0.6,49.2 c 0.1,5.4 4.5,9.8 9.9,9.8 l 0.1,0 c 5.5,-0.1 9.8,-4.5 9.8,-10 z"
         id="path4230" /></g><g
       id="g4234"
       transform="matrix(0.09485017,-0.00478324,0.00478324,0.09485017,4.9578699,1.8956091)" /><g
       id="g4236"
       transform="matrix(0.09485017,-0.00478324,0.00478324,0.09485017,4.9578699,1.8956091)" /><g
       id="g4238"
       transform="matrix(0.09485017,-0.00478324,0.00478324,0.09485017,4.9578699,1.8956091)" /><g
       id="g4240"
       transform="matrix(0.09485017,-0.00478324,0.00478324,0.09485017,4.9578699,1.8956091)" /><g
       id="g4242"
       transform="matrix(0.09485017,-0.00478324,0.00478324,0.09485017,4.9578699,1.8956091)" /><g
       id="g4244"
       transform="matrix(0.09485017,-0.00478324,0.00478324,0.09485017,4.9578699,1.8956091)" /><g
       id="g4246"
       transform="matrix(0.09485017,-0.00478324,0.00478324,0.09485017,4.9578699,1.8956091)" /><g
       id="g4248"
       transform="matrix(0.09485017,-0.00478324,0.00478324,0.09485017,4.9578699,1.8956091)" /><g
       id="g4250"
       transform="matrix(0.09485017,-0.00478324,0.00478324,0.09485017,4.9578699,1.8956091)" /><g
       id="g4252"
       transform="matrix(0.09485017,-0.00478324,0.00478324,0.09485017,4.9578699,1.8956091)" /><g
       id="g4254"
       transform="matrix(0.09485017,-0.00478324,0.00478324,0.09485017,4.9578699,1.8956091)" /><g
       id="g4256"
       transform="matrix(0.09485017,-0.00478324,0.00478324,0.09485017,4.9578699,1.8956091)" /><g
       id="g4258"
       transform="matrix(0.09485017,-0.00478324,0.00478324,0.09485017,4.9578699,1.8956091)" /><g
       id="g4260"
       transform="matrix(0.09485017,-0.00478324,0.00478324,0.09485017,4.9578699,1.8956091)" /><g
       id="g4262"
       transform="matrix(0.09485017,-0.00478324,0.00478324,0.09485017,4.9578699,1.8956091)" /></g></svg>